<mxfile host="app.diagrams.net" modified="2023-10-06T10:36:56.014Z" agent="Mozilla/5.0 (Macintosh; Intel Mac OS X 10_15_7) AppleWebKit/537.36 (KHTML, like Gecko) Chrome/117.0.0.0 Safari/537.36" etag="RDs9SepyZYsLoAAiOwY1" version="21.2.3" type="device">
  <diagram name="Page-1" id="o1J1VVAYlx_NVc_M5Cvq">
    <mxGraphModel dx="1434" dy="797" grid="1" gridSize="10" guides="1" tooltips="1" connect="1" arrows="1" fold="1" page="1" pageScale="1" pageWidth="2339" pageHeight="3300" math="0" shadow="0">
      <root>
        <mxCell id="0" />
        <mxCell id="1" parent="0" />
        <mxCell id="Pi49N7kMnJNC_srO07YO-1" value="Utilisateur" style="shape=umlActor;verticalLabelPosition=bottom;verticalAlign=top;html=1;outlineConnect=0;" parent="1" vertex="1">
          <mxGeometry x="775" y="430" width="30" height="60" as="geometry" />
        </mxCell>
        <mxCell id="Pi49N7kMnJNC_srO07YO-2" value="" style="endArrow=none;dashed=1;html=1;rounded=0;entryX=0.5;entryY=0.5;entryDx=0;entryDy=0;entryPerimeter=0;" parent="1" target="Pi49N7kMnJNC_srO07YO-1" edge="1">
          <mxGeometry width="50" height="50" relative="1" as="geometry">
            <mxPoint x="790" y="800" as="sourcePoint" />
            <mxPoint x="795" y="520" as="targetPoint" />
          </mxGeometry>
        </mxCell>
        <mxCell id="Pi49N7kMnJNC_srO07YO-3" value="system" style="rounded=0;whiteSpace=wrap;html=1;" parent="1" vertex="1">
          <mxGeometry x="960" y="440" width="120" height="60" as="geometry" />
        </mxCell>
        <mxCell id="Pi49N7kMnJNC_srO07YO-4" value="" style="endArrow=none;dashed=1;html=1;rounded=0;entryX=0.5;entryY=0.5;entryDx=0;entryDy=0;entryPerimeter=0;" parent="1" source="Pi49N7kMnJNC_srO07YO-5" edge="1">
          <mxGeometry width="50" height="50" relative="1" as="geometry">
            <mxPoint x="1022.1299999999997" y="1099.6100000000001" as="sourcePoint" />
            <mxPoint x="1017.5" y="500" as="targetPoint" />
          </mxGeometry>
        </mxCell>
        <mxCell id="Pi49N7kMnJNC_srO07YO-5" value="" style="html=1;points=[];perimeter=orthogonalPerimeter;outlineConnect=0;targetShapes=umlLifeline;portConstraint=eastwest;newEdgeStyle={&quot;edgeStyle&quot;:&quot;elbowEdgeStyle&quot;,&quot;elbow&quot;:&quot;vertical&quot;,&quot;curved&quot;:0,&quot;rounded&quot;:0};" parent="1" vertex="1">
          <mxGeometry x="1010" y="590" width="18" height="210" as="geometry" />
        </mxCell>
        <mxCell id="Pi49N7kMnJNC_srO07YO-6" value="" style="endArrow=classic;html=1;rounded=0;" parent="1" target="Pi49N7kMnJNC_srO07YO-5" edge="1">
          <mxGeometry width="50" height="50" relative="1" as="geometry">
            <mxPoint x="791" y="590" as="sourcePoint" />
            <mxPoint x="841" y="540" as="targetPoint" />
          </mxGeometry>
        </mxCell>
        <mxCell id="Pi49N7kMnJNC_srO07YO-7" value="1 : Validation du bouton supprimer ()" style="edgeLabel;html=1;align=center;verticalAlign=middle;resizable=0;points=[];" parent="Pi49N7kMnJNC_srO07YO-6" vertex="1" connectable="0">
          <mxGeometry x="0.3152" y="-3" relative="1" as="geometry">
            <mxPoint x="-34" y="-12" as="offset" />
          </mxGeometry>
        </mxCell>
        <mxCell id="Pi49N7kMnJNC_srO07YO-8" value="serveur" style="rounded=0;whiteSpace=wrap;html=1;" parent="1" vertex="1">
          <mxGeometry x="1175" y="440" width="120" height="60" as="geometry" />
        </mxCell>
        <mxCell id="Pi49N7kMnJNC_srO07YO-9" value="" style="endArrow=none;dashed=1;html=1;rounded=0;entryX=0.5;entryY=0.5;entryDx=0;entryDy=0;entryPerimeter=0;" parent="1" source="Pi49N7kMnJNC_srO07YO-10" edge="1">
          <mxGeometry width="50" height="50" relative="1" as="geometry">
            <mxPoint x="1232.5" y="830" as="sourcePoint" />
            <mxPoint x="1232.5" y="500" as="targetPoint" />
          </mxGeometry>
        </mxCell>
        <mxCell id="Pi49N7kMnJNC_srO07YO-10" value="" style="html=1;points=[];perimeter=orthogonalPerimeter;outlineConnect=0;targetShapes=umlLifeline;portConstraint=eastwest;newEdgeStyle={&quot;edgeStyle&quot;:&quot;elbowEdgeStyle&quot;,&quot;elbow&quot;:&quot;vertical&quot;,&quot;curved&quot;:0,&quot;rounded&quot;:0};" parent="1" vertex="1">
          <mxGeometry x="1225" y="590" width="18" height="210" as="geometry" />
        </mxCell>
        <mxCell id="Pi49N7kMnJNC_srO07YO-11" value="BDD" style="rounded=0;whiteSpace=wrap;html=1;" parent="1" vertex="1">
          <mxGeometry x="1385" y="440" width="120" height="60" as="geometry" />
        </mxCell>
        <mxCell id="Pi49N7kMnJNC_srO07YO-12" value="" style="endArrow=none;dashed=1;html=1;rounded=0;entryX=0.5;entryY=0.5;entryDx=0;entryDy=0;entryPerimeter=0;" parent="1" source="Pi49N7kMnJNC_srO07YO-13" edge="1">
          <mxGeometry width="50" height="50" relative="1" as="geometry">
            <mxPoint x="1442.5" y="830" as="sourcePoint" />
            <mxPoint x="1442.5" y="500" as="targetPoint" />
          </mxGeometry>
        </mxCell>
        <mxCell id="Pi49N7kMnJNC_srO07YO-13" value="" style="html=1;points=[];perimeter=orthogonalPerimeter;outlineConnect=0;targetShapes=umlLifeline;portConstraint=eastwest;newEdgeStyle={&quot;edgeStyle&quot;:&quot;elbowEdgeStyle&quot;,&quot;elbow&quot;:&quot;vertical&quot;,&quot;curved&quot;:0,&quot;rounded&quot;:0};" parent="1" vertex="1">
          <mxGeometry x="1435" y="590" width="18" height="210" as="geometry" />
        </mxCell>
        <mxCell id="Pi49N7kMnJNC_srO07YO-14" value="" style="endArrow=classic;html=1;rounded=0;" parent="1" target="Pi49N7kMnJNC_srO07YO-10" edge="1">
          <mxGeometry width="50" height="50" relative="1" as="geometry">
            <mxPoint x="1030" y="610" as="sourcePoint" />
            <mxPoint x="1185" y="610" as="targetPoint" />
          </mxGeometry>
        </mxCell>
        <mxCell id="Pi49N7kMnJNC_srO07YO-15" value="1.1 : Envoie la figure à supprimer" style="text;html=1;align=center;verticalAlign=middle;resizable=0;points=[];autosize=1;strokeColor=none;fillColor=none;" parent="1" vertex="1">
          <mxGeometry x="1023" y="577" width="200" height="30" as="geometry" />
        </mxCell>
        <mxCell id="Pi49N7kMnJNC_srO07YO-16" value="Envoie requête table figures" style="text;html=1;align=center;verticalAlign=middle;resizable=0;points=[];autosize=1;strokeColor=none;fillColor=none;" parent="1" vertex="1">
          <mxGeometry x="1254" y="598" width="170" height="30" as="geometry" />
        </mxCell>
        <mxCell id="Pi49N7kMnJNC_srO07YO-17" value="" style="endArrow=classic;html=1;rounded=0;" parent="1" target="Pi49N7kMnJNC_srO07YO-13" edge="1">
          <mxGeometry width="50" height="50" relative="1" as="geometry">
            <mxPoint x="1245" y="625" as="sourcePoint" />
            <mxPoint x="1295" y="575" as="targetPoint" />
          </mxGeometry>
        </mxCell>
        <mxCell id="Pi49N7kMnJNC_srO07YO-18" value="Suppression de la figure dans la table" style="html=1;align=left;spacingLeft=2;endArrow=block;rounded=0;edgeStyle=orthogonalEdgeStyle;curved=0;rounded=0;" parent="1" edge="1">
          <mxGeometry relative="1" as="geometry">
            <mxPoint x="1453" y="625" as="sourcePoint" />
            <Array as="points">
              <mxPoint x="1483" y="655" />
            </Array>
            <mxPoint x="1458" y="655" as="targetPoint" />
          </mxGeometry>
        </mxCell>
        <mxCell id="Pi49N7kMnJNC_srO07YO-19" value="&lt;font style=&quot;font-size: 30px;&quot;&gt;&amp;nbsp;Diagramme de séquence : Supprimer une figure&lt;/font&gt;" style="text;html=1;strokeColor=none;fillColor=none;align=center;verticalAlign=middle;whiteSpace=wrap;rounded=0;" parent="1" vertex="1">
          <mxGeometry x="681" y="230" width="900" height="170" as="geometry" />
        </mxCell>
        <mxCell id="Pi49N7kMnJNC_srO07YO-20" value="" style="endArrow=classic;html=1;rounded=0;" parent="1" edge="1">
          <mxGeometry width="50" height="50" relative="1" as="geometry">
            <mxPoint x="1434" y="663" as="sourcePoint" />
            <mxPoint x="1242" y="663" as="targetPoint" />
          </mxGeometry>
        </mxCell>
        <mxCell id="Pi49N7kMnJNC_srO07YO-21" value="Renvoie la validation de la requête" style="text;html=1;align=center;verticalAlign=middle;resizable=0;points=[];autosize=1;strokeColor=none;fillColor=none;" parent="1" vertex="1">
          <mxGeometry x="1234" y="633" width="210" height="30" as="geometry" />
        </mxCell>
        <mxCell id="Pi49N7kMnJNC_srO07YO-22" value="" style="endArrow=classic;html=1;rounded=0;" parent="1" edge="1">
          <mxGeometry width="50" height="50" relative="1" as="geometry">
            <mxPoint x="1225" y="680" as="sourcePoint" />
            <mxPoint x="1028" y="680" as="targetPoint" />
          </mxGeometry>
        </mxCell>
        <mxCell id="Pi49N7kMnJNC_srO07YO-23" value="Affiche message succès" style="text;html=1;align=center;verticalAlign=middle;resizable=0;points=[];autosize=1;strokeColor=none;fillColor=none;" parent="1" vertex="1">
          <mxGeometry x="1055" y="650" width="150" height="30" as="geometry" />
        </mxCell>
        <mxCell id="Pi49N7kMnJNC_srO07YO-24" value="" style="endArrow=classic;html=1;rounded=0;" parent="1" edge="1">
          <mxGeometry width="50" height="50" relative="1" as="geometry">
            <mxPoint x="1010" y="693" as="sourcePoint" />
            <mxPoint x="795" y="693" as="targetPoint" />
          </mxGeometry>
        </mxCell>
        <mxCell id="Pi49N7kMnJNC_srO07YO-25" value="2 : Retour à l&#39;annuaire des figures" style="text;html=1;align=center;verticalAlign=middle;resizable=0;points=[];autosize=1;strokeColor=none;fillColor=none;" parent="1" vertex="1">
          <mxGeometry x="803" y="663" width="200" height="30" as="geometry" />
        </mxCell>
      </root>
    </mxGraphModel>
  </diagram>
</mxfile>
